<svg viewBox="0 -4 512 512" xmlns="http://www.w3.org/2000/svg"><path d="m339.503906 256h-167.007812c-22.503906 0-40.746094-18.242188-40.746094-40.746094v-167.007812c0-22.503906 18.242188-40.746094 40.746094-40.746094h167.007812c22.503906 0 40.746094 18.242188 40.746094 40.746094v167.007812c0 22.503906-18.242188 40.746094-40.746094 40.746094zm0 0" fill="#ffc2e1"/><path d="m203.605469 215.253906v-167.007812c0-22.503906 18.242187-40.746094 40.746093-40.746094h-71.855468c-22.503906 0-40.746094 18.242188-40.746094 40.746094v167.007812c0 22.503906 18.242188 40.746094 40.746094 40.746094h71.855468c-22.503906 0-40.746093-18.242188-40.746093-40.746094zm0 0" fill="#ffabcd"/><path d="m193.875 217.503906c-13.050781 0-23.628906-10.578125-23.628906-23.628906v-124.25c0-13.050781 10.578125-23.628906 23.628906-23.628906h124.25c13.050781 0 23.628906 10.578125 23.628906 23.628906v124.25c0 13.050781-10.578125 23.628906-23.628906 23.628906zm0 0" fill="#ffeb99"/><path d="m203.605469 48.246094c0-.753906.023437-1.503906.066406-2.25h-9.796875c-13.050781 0-23.628906 10.578125-23.628906 23.628906v124.25c0 13.050781 10.578125 23.628906 23.628906 23.628906h9.796875c-.042969-.746094-.066406-1.496094-.066406-2.25zm0 0" fill="#ffde55"/><path d="m215.253906 496.355469h-167.007812c-22.503906 0-40.746094-18.242188-40.746094-40.746094v-167.007813c0-22.503906 18.242188-40.746093 40.746094-40.746093h167.007812c22.503906 0 40.746094 18.242187 40.746094 40.746093v167.007813c0 22.503906-18.242188 40.746094-40.746094 40.746094zm0 0" fill="#7de2e2"/><path d="m97.179688 353.515625c.785156-95.339844 62.050781-104.90625 80.042968-105.660156h-128.976562c-22.503906 0-40.746094 18.242187-40.746094 40.746093v167.007813c0 22.503906 18.242188 40.746094 40.746094 40.746094h33.449218c6.3125-25.4375 14.902344-72.664063 15.484376-142.839844zm0 0" fill="#66d3d0"/><path d="m69.625 457.859375c-13.050781 0-23.628906-10.578125-23.628906-23.628906v-124.25c0-13.050781 10.578125-23.628907 23.628906-23.628907h124.25c13.050781 0 23.628906 10.578126 23.628906 23.628907v124.25c0 13.050781-10.578125 23.628906-23.628906 23.628906zm0 0" fill="#ffeb99"/><path d="m69.625 286.351562c-13.050781 0-23.628906 10.578126-23.628906 23.628907v124.25c0 13.050781 10.578125 23.628906 23.628906 23.628906h19.6875c4.066406-26.144531 7.507812-60.832031 7.867188-104.34375.246093-30.167969 6.542968-51.734375 15.617187-67.164063zm0 0" fill="#ffde55"/><path d="m463.753906 496.355469h-167.007812c-22.503906 0-40.746094-18.242188-40.746094-40.746094v-167.007813c0-22.503906 18.242188-40.746093 40.746094-40.746093h167.007812c22.503906 0 40.746094 18.242187 40.746094 40.746093v167.007813c0 22.503906-18.242188 40.746094-40.746094 40.746094zm0 0" fill="#b1ef97"/><path d="m296.746094 247.855469c-22.503906 0-40.746094 18.242187-40.746094 40.746093v167.007813c0 22.503906 18.242188 40.746094 40.746094 40.746094h127.464844c-16.367188-10.828125-52.933594-41.085938-76.710938-106.816407-22.183594-61.332031-8.878906-115.285156.847656-141.683593zm0 0" fill="#92dd7a"/><path d="m318.125 457.859375c-13.050781 0-23.628906-10.578125-23.628906-23.628906v-124.25c0-13.050781 10.578125-23.628907 23.628906-23.628907h124.25c13.050781 0 23.628906 10.578126 23.628906 23.628907v124.25c0 13.050781-10.578125 23.628906-23.628906 23.628906zm0 0" fill="#ffeb99"/><path d="m318.125 286.351562c-13.050781 0-23.628906 10.578126-23.628906 23.628907v124.25c0 13.050781 10.578125 23.628906 23.628906 23.628906h65.984375c-12.796875-16.640625-25.976563-38.929687-36.605469-68.320313-14.164062-39.152343-13.863281-75.296874-9.265625-103.1875zm0 0" fill="#ffde55"/><g fill="#eab9a4"><path d="m169.957031 361.046875c2.359375-4.980469 3.667969-10.554687 3.640625-16.425781-.09375-21.109375-17.722656-37.964844-38.832031-37.964844h-39.0625c-7.925781 0-14.351563 6.425781-14.351563 14.351562v102.195313c0 7.929687 6.425782 14.355469 14.351563 14.355469h44.054687c22.566407 0 41.589844-17.652344 42.367188-40.207032.394531-11.523437-3.921875-22.050781-11.160156-29.824218-1.636719-1.753906-2.035156-4.308594-1.007813-6.480469zm-59.902343-25.6875h25.40625c5.203124 0 12.140624 3.359375 12.140624 12.484375 0 9.128906-6.9375 12.214844-12.140624 12.214844h-25.40625zm30.429687 73.492187h-30.429687v-25.921874h30.429687c7.144531 0 12.960937 5.816406 12.960937 12.960937 0 7.148437-5.8125 12.960937-12.960937 12.960937zm0 0"/><path d="m386.777344 437.558594c-32.488282 0-58.921875-29.363282-58.921875-65.453125 0-36.089844 26.433593-65.449219 58.921875-65.449219 15.972656 0 30.914062 6.957031 42.070312 19.585938 5.246094 5.941406 4.683594 15.011718-1.253906 20.261718-5.941406 5.25-15.011719 4.683594-20.257812-1.257812-5.632813-6.375-12.933594-9.886719-20.558594-9.886719-16.664063 0-30.214844 16.484375-30.214844 36.75 0 20.261719 13.554688 36.746094 30.214844 36.746094 7.695312 0 15.046875-3.570313 20.699218-10.050781 5.207032-5.972657 14.277344-6.589844 20.25-1.382813 5.972657 5.210937 6.589844 14.277344 1.382813 20.25-11.183594 12.824219-26.21875 19.886719-42.332031 19.886719zm0 0"/><path d="m317.742188 175.542969-36.640626-89.671875c-4.484374-10.972656-14.101562-17.789063-25.097656-17.789063s-20.613281 6.816407-25.097656 17.789063l-36.640625 89.671875c-3 7.335937.519531 15.714843 7.855469 18.714843 7.335937 2.996094 15.71875-.519531 18.714844-7.859374l4.351562-10.644532h61.632812l4.351563 10.644532c2.269531 5.5625 9.957031 11.605468 18.714844 7.859374 7.285156-3.117187 10.851562-11.378906 7.855469-18.714843zm-72.574219-48.6875 10.835937-26.515625 10.835938 26.515625 8.25 20.191406h-38.175782zm0 0"/></g><path d="m432.652344 391.769531c-9.320313-7.636719-22.914063-6.976562-30.828125 2.105469-4.207031 4.820312-9.550781 7.476562-15.046875 7.476562-12.527344 0-22.714844-13.121093-22.714844-29.246093 0-16.128907 10.1875-29.246094 22.714844-29.246094 5.441406 0 10.746094 2.609375 14.9375 7.351563 3.863281 4.375 16.082031 14.960937 30.84375 1.910156 12.515625-11.066406 5.773437-26.46875 1.910156-30.84375-12.601562-14.265625-29.539062-22.125-47.691406-22.125-6.292969 0-12.523438.972656-18.519532 2.882812-3.945312 1.261719-6.125 5.480469-4.867187 9.425782 1.257813 3.945312 5.480469 6.121093 9.425781 4.867187 4.519532-1.441406 9.21875-2.175781 13.960938-2.175781 13.789062 0 26.734375 6.058594 36.449218 17.054687 1.210938 1.371094 3.558594 5.554688-.601562 9.671875-4.160156 4.117188-8.457031.773438-9.671875-.601562-7.074219-8.007813-16.371094-12.417969-26.175781-12.417969-20.796875 0-37.714844 19.847656-37.714844 44.246094 0 24.398437 16.917969 44.246093 37.714844 44.246093 9.894531 0 19.253906-4.480468 26.351562-12.617187 2.484375-2.851563 7-3.335937 9.667969-.660156 4.226563 4.234375 1.863281 8.285156.660156 9.667969-9.738281 11.164062-22.765625 17.3125-36.679687 17.3125-28.355469 0-51.421875-25.996094-51.421875-57.949219 0-15.222657 5.230469-29.617188 14.722656-40.53125 2.71875-3.125 2.386719-7.859375-.738281-10.578125-3.121094-2.71875-7.859375-2.390625-10.578125.734375-11.871094 13.640625-18.40625 31.53125-18.40625 50.375 0 40.226562 29.796875 72.949219 66.421875 72.949219 18.3125 0 35.613281-7.753907 47.984375-22.453126 10.292969-12.238281 4.0625-25.777343-2.109375-30.832031zm0 0"/><path d="m110.054688 367.558594h25.40625c9.761718 0 19.640624-6.769532 19.640624-19.714844 0-13.121094-9.878906-19.984375-19.640624-19.984375h-25.40625c-4.140626 0-7.5 3.359375-7.5 7.5v24.699219c0 4.144531 3.359374 7.5 7.5 7.5zm7.5-24.699219h17.90625c1.730468 0 4.640624.648437 4.640624 4.984375 0 3.128906-1.5625 4.714844-4.640624 4.714844h-17.90625zm0 0"/><path d="m110.054688 416.351562h30.429687c11.28125 0 20.460937-9.175781 20.460937-20.460937 0-11.28125-9.179687-20.460937-20.460937-20.460937h-30.429687c-4.140626 0-7.5 3.359374-7.5 7.5v25.921874c0 4.144532 3.359374 7.5 7.5 7.5zm7.5-25.921874h22.929687c3.011719 0 5.460937 2.453124 5.460937 5.460937 0 3.011719-2.453124 5.460937-5.460937 5.460937h-22.929687zm0 0"/><path d="m95.703125 445.058594h44.054687c12.882813 0 25.132813-4.863282 34.5-13.6875 9.464844-8.921875 14.921876-20.910156 15.363282-33.761719.4375-12.726563-3.964844-24.886719-12.417969-34.371094 2.613281-5.886719 3.925781-12.15625 3.894531-18.652343-.109375-25.050782-20.894531-45.429688-46.332031-45.429688h-39.0625c-12.050781 0-21.851563 9.800781-21.851563 21.851562v102.199219c0 12.046875 9.800782 21.851563 21.851563 21.851563zm-6.851563-124.050782c0-3.777343 3.074219-6.851562 6.851563-6.851562h39.0625c17.203125 0 31.257813 13.679688 31.332031 30.496094.019532 4.609375-.960937 9.046875-2.917968 13.1875-2.351563 4.96875-1.449219 10.777344 2.300781 14.804687 6.210937 6.667969 9.460937 15.351563 9.148437 24.449219-.625 18.175781-16.269531 32.964844-34.871094 32.964844h-44.054687c-3.777344 0-6.851563-3.074219-6.851563-6.851563zm0 0"/><path d="m256.003906 92.839844c-3.046875 0-5.789062 1.84375-6.945312 4.664062l-10.835938 26.515625-8.25 20.191407c-.945312 2.3125-.675781 4.945312.71875 7.019531 1.390625 2.074219 3.726563 3.316406 6.222656 3.316406h38.175782c2.5 0 4.832031-1.242187 6.226562-3.316406 1.394532-2.074219 1.660156-4.707031.714844-7.019531l-19.085938-46.707032c-1.152343-2.824218-3.894531-4.664062-6.941406-4.664062zm-7.921875 46.710937 7.921875-19.386719 7.917969 19.386719zm0 0"/><path d="m256.003906 60.582031c-14.105468 0-26.382812 8.605469-32.039062 22.453125l-36.644532 89.667969c-5.917968 15.875 6.5625 26.289063 11.964844 28.496094 11.15625 4.558593 23.9375-.8125 28.492188-11.964844l2.445312-5.980469h51.558594l2.445312 5.980469c6.675782 18.164063 25.839844 13.101563 28.605469 11.917969 11.207031-4.792969 16.410157-17.289063 11.851563-28.449219l-36.640625-89.667969c-5.65625-13.847656-17.933594-22.453125-32.039063-22.453125zm50.929688 126.777344c-1.644532.703125-7.035156 1.21875-8.820313-3.796875l-4.351562-10.644531c-1.152344-2.820313-3.894531-4.664063-6.941407-4.664063h-61.632812c-3.046875 0-5.789062 1.84375-6.941406 4.664063l-4.351563 10.644531c-1.429687 3.496094-5.4375 5.179688-8.933593 3.75-1.695313-.691406-5.589844-3.714844-3.753907-8.933594l36.640625-89.671875c3.308594-8.097656 10.265625-13.125 18.15625-13.125s14.84375 5.027344 18.152344 13.125l36.640625 89.671875c1.429687 3.5-.265625 7.445313-3.863281 8.980469zm0 0"/><path d="m193.875 30.996094c-21.300781 0-38.628906 17.328125-38.628906 38.628906v124.25c0 21.300781 17.328125 38.628906 38.628906 38.628906h124.25c21.300781 0 38.628906-17.328125 38.628906-38.628906v-124.25c0-21.300781-17.328125-38.628906-38.628906-38.628906zm147.878906 38.628906v124.25c0 13.050781-10.578125 23.628906-23.628906 23.628906h-124.25c-13.050781 0-23.628906-10.578125-23.628906-23.628906v-124.25c0-13.050781 10.578125-23.628906 23.628906-23.628906h124.25c13.050781 0 23.628906 10.578125 23.628906 23.628906zm0 0"/><path d="m193.875 472.859375c21.300781 0 38.628906-17.328125 38.628906-38.628906v-124.25c0-21.300781-17.328125-38.628907-38.628906-38.628907h-124.25c-21.300781 0-38.628906 17.328126-38.628906 38.628907v124.25c0 21.300781 17.328125 38.628906 38.628906 38.628906zm-147.878906-38.628906v-124.25c0-13.050781 10.578125-23.628907 23.628906-23.628907h124.25c13.050781 0 23.628906 10.578126 23.628906 23.628907v124.25c0 13.050781-10.578125 23.628906-23.628906 23.628906h-124.25c-13.050781 0-23.628906-10.578125-23.628906-23.628906zm0 0"/><path d="m442.375 271.351562h-124.25c-21.300781 0-38.628906 17.328126-38.628906 38.628907v124.25c0 21.300781 17.328125 38.628906 38.628906 38.628906h124.25c21.300781 0 38.628906-17.328125 38.628906-38.628906v-124.25c0-21.300781-17.328125-38.628907-38.628906-38.628907zm23.628906 162.878907c0 13.050781-10.578125 23.628906-23.628906 23.628906h-124.25c-13.050781 0-23.628906-10.578125-23.628906-23.628906v-124.25c0-13.050781 10.578125-23.628907 23.628906-23.628907h124.25c13.050781 0 23.628906 10.578126 23.628906 23.628907zm0 0"/><path d="m463.753906 240.355469h-83.023437c4.542969-7.4375 7.019531-16.046875 7.019531-25.101563v-25.410156c0-4.140625-3.359375-7.5-7.5-7.5s-7.5 3.359375-7.5 7.5v25.410156c0 9.757813-4.152344 18.777344-11.457031 25.101563h-64.546875c-9.902344 0-19.117188 3.003906-26.789063 8.144531h-27.914062c-7.671875-5.140625-16.886719-8.144531-26.789063-8.144531h-64.558594c-7.296874-6.328125-11.445312-15.371094-11.445312-25.101563v-167.007812c0-18.332032 14.914062-33.246094 33.246094-33.246094h167.007812c18.332032 0 33.246094 14.914062 33.246094 33.246094v107.277344c0 4.140624 3.359375 7.5 7.5 7.5s7.5-3.359376 7.5-7.5v-107.277344c0-26.601563-21.644531-48.246094-48.246094-48.246094h-167.007812c-26.601563 0-48.246094 21.644531-48.246094 48.246094v167.007812c0 9.035156 2.480469 17.65625 7.027344 25.101563h-83.03125c-26.601563 0-48.246094 21.644531-48.246094 48.246093v27.554688c0 4.140625 3.359375 7.5 7.5 7.5s7.5-3.359375 7.5-7.5v-27.554688c0-18.332031 14.914062-33.246093 33.246094-33.246093h167.007812c18.332032 0 33.246094 14.914062 33.246094 33.246093v167.007813c0 18.332031-14.914062 33.246094-33.246094 33.246094h-167.007812c-18.332032 0-33.246094-14.914063-33.246094-33.246094v-108.339844c0-4.140625-3.359375-7.5-7.5-7.5s-7.5 3.359375-7.5 7.5v108.339844c0 26.605469 21.644531 48.246094 48.246094 48.246094h167.007812c17.125 0 32.179688-8.972657 40.746094-22.460938 8.566406 13.488281 23.621094 22.460938 40.746094 22.460938h167.007812c26.601563 0 48.246094-21.640625 48.246094-48.246094v-167.007813c0-26.601562-21.644531-48.246093-48.246094-48.246093zm33.246094 215.253906c0 18.332031-14.914062 33.246094-33.246094 33.246094h-167.007812c-18.332032 0-33.246094-14.914063-33.246094-33.246094v-167.007813c0-18.332031 14.914062-33.246093 33.246094-33.246093h167.007812c18.332032 0 33.246094 14.914062 33.246094 33.246093zm0 0"/></svg>